<?xml version="1.0" encoding="iso-8859-1"?>
<!-- Generator: Adobe Illustrator 18.0.0, SVG Export Plug-In . SVG Version: 6.00 Build 0)  -->
<!DOCTYPE svg PUBLIC "-//W3C//DTD SVG 1.1//EN" "http://www.w3.org/Graphics/SVG/1.1/DTD/svg11.dtd">
<svg version="1.1" fill=" #6A6350" id="Capa_1" stroke="#fbf2ed" stroke-width="10" xmlns="http://www.w3.org/2000/svg" xmlns:xlink="http://www.w3.org/1999/xlink" x="0px" y="0px"
	 viewBox="0 0 482.16 482.16" style="enable-background:new 0 0 482.16 482.16;" xml:space="preserve">
<path d="M382.39,115.642c-2.559-2.84-6.697-3.624-10.118-1.914c-26.177,13.088-49.763,37.094-70.233,71.439
	c20.155-78.498,50.127-139.064,50.582-139.972c1.895-3.786,0.715-8.391-2.769-10.798c-3.485-2.406-8.206-1.884-11.079,1.229
	c-30.831,33.411-55.5,71.984-73.494,114.789L249.531,7.569C249.056,3.261,245.416,0,241.082,0s-7.974,3.261-8.449,7.569
	l-15.748,142.853c-17.996-42.807-42.664-81.382-73.497-114.796c-2.871-3.111-7.594-3.636-11.079-1.229
	c-3.483,2.407-4.663,7.011-2.769,10.798c0.455,0.908,30.427,61.475,50.582,139.975c-20.47-34.348-44.057-58.354-70.233-71.442
	c-3.419-1.709-7.56-0.927-10.118,1.914c-2.558,2.84-2.905,7.04-0.849,10.262c40.01,62.683,65.432,115.041,67.507,178.917h-6.766
	c-4.251,0-7.849,3.141-8.422,7.354l-6.329,46.498c-0.331,2.432,0.404,4.888,2.019,6.737s3.949,2.91,6.403,2.91h2.218l15.556,106.569
	c0.609,4.176,4.191,7.272,8.411,7.272h123.126c4.22,0,7.801-3.096,8.411-7.272l15.557-106.57h2.213c2.454,0,4.789-1.061,6.403-2.91
	c1.613-1.849,2.35-4.305,2.019-6.737l-6.329-46.498c-0.573-4.212-4.171-7.354-8.422-7.354h-6.766
	c2.075-63.877,27.497-116.235,67.508-178.917C385.295,122.681,384.947,118.482,382.39,115.642z M311.501,98.684
	c-3.014,8.042-6.13,16.73-9.254,25.965c-15.395,45.512-33.616,112.94-35.065,180.172h-17.506
	c0.957-46.744,9.807-92.333,26.357-135.633C285.586,144.194,297.447,120.63,311.501,98.684z M241.082,86.073l11.038,100.135
	c-4.424,13.972-8.115,28.14-11.04,42.481c-2.925-14.338-6.615-28.504-11.037-42.472L241.082,86.073z M170.659,98.685
	c14.054,21.946,25.915,45.509,35.468,70.502c16.551,43.301,25.401,88.89,26.358,135.633h-17.506
	c-1.45-67.232-19.67-134.66-35.065-180.172C176.789,115.414,173.673,106.728,170.659,98.685z M165.413,215.773
	c-7.188-19.081-16.553-38.738-29.179-61.036c36.572,38.138,55.566,94.529,57.938,101.892c2.094,15.95,3.444,32.102,3.803,48.192
	h-14.533C182.541,274.409,176.758,245.887,165.413,215.773z M295.295,465.16H186.868l-14.136-96.842h136.699L295.295,465.16z
	 M163.069,351.318l4.016-29.498h147.989l4.016,29.498H163.069z M316.746,215.773c-11.345,30.114-17.127,58.635-18.029,89.047
	h-14.532c0.359-16.091,1.71-32.246,3.804-48.197c2.383-7.396,21.377-63.763,57.936-101.887
	C333.299,177.035,323.935,196.693,316.746,215.773z"/>
<g>
</g>
<g>
</g>
<g>
</g>
<g>
</g>
<g>
</g>
<g>
</g>
<g>
</g>
<g>
</g>
<g>
</g>
<g>
</g>
<g>
</g>
<g>
</g>
<g>
</g>
<g>
</g>
<g>
</g>
</svg>
