<svg width="167" height="172" viewBox="0 0 167 172" fill="none" xmlns="http://www.w3.org/2000/svg">
<g clip-path="url(#clip0)">
<path d="M59.5324 98.7163C57.7484 98.7163 55.9088 98.5359 54.0229 98.1727C44.8032 96.3983 34.9305 90.3576 24.6782 80.2176C3.37001 59.1432 0.1371 21.2975 0.00971985 19.6967C-0.0639343 18.771 0.273865 17.8598 0.933289 17.2031C1.59273 16.5464 2.5088 16.2083 3.44029 16.2807C5.0451 16.4044 42.9928 19.5518 64.2962 40.6214C74.5589 50.7714 80.7129 60.522 82.5871 69.6018C84.1074 76.9668 82.7461 83.6295 78.6542 89.0747C95.81 102.84 114.073 114.236 128.473 122.383C130.173 123.345 131.845 124.276 133.488 125.178C131.245 120.381 128.71 113.475 126.75 104.072C115.058 103.63 103.167 92.3723 101.587 67.255C100.099 43.5842 120.586 23.5744 121.458 22.7342C122.587 21.6471 124.343 21.5388 125.599 22.4769C126.57 23.2023 149.404 40.5194 150.892 64.1905C152.352 87.419 143.578 99.982 133.118 103.232C134.197 108.321 135.414 112.477 136.562 115.752C140.001 125.572 143.546 129.816 143.635 129.921C143.637 129.923 143.639 129.925 143.641 129.928C144.347 130.739 145.208 131.407 146.167 131.897C160.849 139.399 170.896 143.576 171.031 143.632C172.66 144.306 173.431 146.164 172.754 147.783C172.244 149.004 171.056 149.741 169.804 149.741C169.395 149.741 168.98 149.662 168.579 149.497C168.391 149.419 149.434 141.542 125.396 127.949C121.841 125.939 118.052 123.731 114.105 121.343C111.851 123.106 103.97 128.496 87.8709 132.22C87.5545 142.791 77.4601 153.681 54.659 155.6C53.6253 155.687 52.5999 155.729 51.5809 155.729C31.309 155.729 14.3403 139.297 13.5929 138.563C12.4755 137.465 12.3271 135.722 13.2431 134.453C13.886 133.562 29.2379 112.612 50.8429 110.794C61.1463 109.925 70.0804 111.313 76.6804 114.804C81.7639 117.492 85.2677 121.343 86.8782 125.897C98.2253 123.206 104.974 119.709 108.188 117.696C97.2916 110.859 85.5078 102.767 74.1922 93.6525C69.9936 97.0008 65.0266 98.7163 59.5324 98.7163ZM140.267 89.2402C143.68 83.1861 145.15 74.6615 144.517 64.5873C143.466 47.8807 129.454 34.1421 123.954 29.3641C119.094 34.7884 106.913 50.1539 107.963 66.8594C108.596 76.9332 111.122 85.2097 115.267 90.7939C118.19 94.7314 121.71 97.0509 125.566 97.6109C124.191 88.9597 123.333 78.5537 123.481 66.1645C123.502 64.411 124.93 63.0022 126.712 63.0269C128.476 63.0478 129.889 64.486 129.868 66.2396C129.722 78.5253 130.614 88.6952 131.946 96.9377C135.252 95.7128 138.087 93.1075 140.267 89.2402ZM53.1444 129.622C64.0016 129.512 73.0653 128.563 80.5419 127.215C79.3403 124.494 77.0227 122.178 73.6808 120.411C68.1682 117.496 60.4572 116.358 51.3825 117.122C36.5755 118.368 24.5903 130.785 20.2166 135.936C25.4012 140.284 39.315 150.522 54.1202 149.273C63.1956 148.509 70.6042 146.099 75.5453 142.303C78.8514 139.764 80.8151 136.775 81.3445 133.545C73.5824 134.914 64.2736 135.861 53.2101 135.973C53.1989 135.973 53.188 135.973 53.1767 135.973C51.4283 135.973 50.0016 134.572 49.9836 132.83C49.9652 131.076 51.3806 129.64 53.1444 129.622ZM76.3302 70.8787C74.7355 63.1539 69.0167 54.2479 59.7917 45.1241C43.9514 29.4578 16.8747 24.4333 6.83702 23.0637C8.2318 33.0595 13.3408 60.0472 29.1834 75.7153C38.3885 84.8193 47.3977 90.4289 55.2373 91.9378C60.58 92.9662 65.2408 92.1384 69.1399 89.4823C62.0492 83.4905 55.229 77.1009 49.0318 70.368C47.7926 69.0216 47.9399 66.9012 49.3967 65.7416C50.7272 64.6829 52.6743 64.9198 53.8256 66.1694C59.9428 72.8067 66.6938 79.1089 73.7176 85.0188C76.5707 81.069 77.4548 76.3284 76.3302 70.8787Z" fill="#9FB8B4" fill-opacity="0.34"/>
</g>
<defs>
<clipPath id="clip0">
<rect width="173" height="172" fill="white" transform="matrix(-1 0 0 1 173 0)"/>
</clipPath>
</defs>
</svg>
