<svg width="256" height="258" viewBox="0 0 256 258" fill="none" xmlns="http://www.w3.org/2000/svg">
<g clip-path="url(#clip0)">
<path d="M166.185 148.074C168.877 148.074 171.652 147.804 174.497 147.259C188.407 144.597 203.301 135.536 218.769 120.326C250.916 88.7148 255.793 31.9462 255.985 29.5451C256.096 28.1565 255.587 26.7898 254.592 25.8046C253.597 24.8195 252.215 24.3124 250.81 24.4211C248.389 24.6066 191.138 29.3276 158.998 60.932C143.515 76.1571 134.231 90.7831 131.403 104.403C129.11 115.45 131.163 125.444 137.337 133.612C111.454 154.26 83.9012 171.354 62.1762 183.574C59.6122 185.017 57.089 186.414 54.6106 187.768C57.9943 180.572 61.8185 170.213 64.7759 156.108C82.4148 155.444 100.355 138.558 102.738 100.882C104.983 65.3763 74.076 35.3616 72.7592 34.1014C71.0563 32.4707 68.4073 32.3082 66.5128 33.7153C65.0474 34.8035 30.5988 60.7791 28.354 96.2858C26.1505 131.129 39.3888 149.973 55.1684 154.849C53.5403 162.482 51.7042 168.715 49.9736 173.628C44.7849 188.358 39.4359 194.725 39.3027 194.881C39.2993 194.885 39.2959 194.888 39.293 194.892C38.2284 196.109 36.9297 197.111 35.4819 197.846C13.3317 209.099 -1.82544 215.364 -2.03008 215.448C-4.48693 216.459 -5.65073 219.246 -4.62921 221.675C-3.85939 223.506 -2.06693 224.611 -0.178092 224.611C0.438104 224.611 1.06507 224.493 1.66936 224.245C1.95393 224.128 30.554 212.313 66.8195 191.923C72.1827 188.908 77.8985 185.597 83.853 182.015C87.2531 184.659 99.1439 192.744 123.432 198.329C123.909 214.187 139.138 230.521 173.538 233.4C175.097 233.531 176.644 233.593 178.181 233.593C208.765 233.593 234.365 208.945 235.493 207.844C237.179 206.197 237.403 203.583 236.02 201.68C235.051 200.343 211.89 168.918 179.295 166.19C163.75 164.888 150.272 166.97 140.315 172.205C132.645 176.238 127.359 182.015 124.929 188.845C107.81 184.81 97.6287 179.564 92.7802 176.544C109.219 166.288 126.997 154.151 144.068 140.479C150.403 145.501 157.896 148.074 166.185 148.074ZM44.383 133.86C39.2335 124.779 37.0164 111.992 37.9716 96.8809C39.5566 71.821 60.6972 51.2131 68.9946 44.0461C76.3271 52.1825 94.7041 75.2308 93.1197 100.289C92.164 115.4 88.3529 127.815 82.0996 136.191C77.6899 142.097 72.38 145.576 66.5627 146.416C68.6374 133.439 69.9305 117.831 69.7083 99.2468C69.6765 96.6164 67.5212 94.5033 64.8331 94.5403C62.1722 94.5717 60.0407 96.7291 60.0719 99.3594C60.2924 117.788 58.9467 133.043 56.9371 145.407C51.9497 143.569 47.6726 139.661 44.383 133.86ZM175.823 194.433C159.443 194.268 145.768 192.845 134.489 190.823C136.302 186.741 139.798 183.267 144.84 180.616C153.157 176.243 164.79 174.538 178.481 175.683C200.82 177.552 218.901 196.177 225.5 203.904C217.678 210.426 196.687 225.783 174.35 223.909C160.659 222.763 149.482 219.148 142.027 213.455C137.039 209.645 134.077 205.162 133.278 200.317C144.988 202.371 159.032 203.791 175.723 203.959C175.74 203.959 175.757 203.959 175.774 203.959C178.412 203.959 180.564 201.859 180.591 199.245C180.619 196.614 178.484 194.46 175.823 194.433ZM140.843 106.318C143.249 94.7308 151.877 81.3718 165.794 67.6861C189.692 44.1867 230.542 36.6499 245.685 34.5956C243.581 49.5892 235.873 90.0708 211.972 113.573C198.084 127.229 184.492 135.643 172.665 137.907C164.605 139.449 157.573 138.208 151.691 134.223C162.388 125.236 172.678 115.651 182.027 105.552C183.897 103.532 183.674 100.352 181.477 98.6124C179.469 97.0244 176.532 97.3796 174.795 99.254C165.566 109.21 155.381 118.663 144.784 127.528C140.48 121.604 139.146 114.493 140.843 106.318Z" fill="#9FB8B4" fill-opacity="0.34"/>
</g>
<defs>
<clipPath id="clip0">
<rect width="261" height="258" fill="white" transform="translate(-5)"/>
</clipPath>
</defs>
</svg>
