<?xml version="1.0" encoding="iso-8859-1"?>
<!-- Generator: Adobe Illustrator 19.0.0, SVG Export Plug-In . SVG Version: 6.00 Build 0)  -->
<svg version="1.1" id="Layer_1" xmlns="http://www.w3.org/2000/svg" fill=" #6A6350" stroke="#fbf2ed" stroke-width="15" xmlns:xlink="http://www.w3.org/1999/xlink" x="0px" y="0px"
	 viewBox="0 0 512 512" style="enable-background:new 0 0 512 512;" xml:space="preserve">
<g>
	<g>
		<path d="M256.412,201.305c13.859,8.18,29.266,12.164,44.578,12.164c26.391,0,52.484-11.82,69.813-34.352
			C419.067,116.336,397.708,0,397.708,0S284.942,8.82,234.802,67.922c-38.172-20.188-88.203-21.938-104.313-21.938
			c-3.359,0-5.25,0.078-5.25,0.078s-5.844,91.781,37.188,135.828c13.406,13.727,31.172,20.609,48.953,20.609
			c8,0,16-1.406,23.609-4.203c-1.281,4.211-2.438,8.453-3.438,12.719c-5.047,21.586-6.328,43.805-3.859,66.328H109.583L152.239,512
			h170.672l42.672-234.656H249.161c-2.515-20.774-1.515-41.219,3.063-61.016C253.396,211.281,254.787,206.273,256.412,201.305z
			 M211.379,181.172c-12.796,0-24.749-5.039-33.687-14.188c-14.266-14.594-24.203-39.375-28.75-71.664
			c-1.438-10.18-2.125-19.672-2.422-27.477c10.406,0.648,23.938,2.063,38.063,5.078c14.672,3.125,27.516,7.469,38.234,12.852
			c-6.297,12.344-9.422,25.719-9.547,39.047c-4.422-5.109-7.422-8.461-7.688-8.758v0.008c-1.813-2.039-4.406-3.383-7.344-3.547
			c-5.891-0.328-10.922,4.172-11.25,10.055c-0.172,2.938,0.875,5.672,2.688,7.703c17.094,19.117,30.828,36.039,39.234,47.5
			C223.41,180,217.472,181.172,211.379,181.172z M305.114,490.656H170.052l-27.156-149.313h189.359L305.114,490.656z
			 M340.021,298.656L336.13,320H139.021l-3.875-21.344H340.021z M235.16,134.227c-2.297-17.641,2.422-35.117,13.266-49.219
			c21.251-27.641,60.345-43.438,89.391-51.82c15.797-4.555,30.453-7.469,41.5-9.281c1.094,11.148,2.047,26.063,1.688,42.5
			c-0.641,30.227-5.859,72.063-27.125,99.703c-12.719,16.539-32,26.031-52.891,26.031c-13.172,0-25.734-3.805-36.641-11.023
			c4.125-8.883,8.984-17.594,14.578-26.078c22.094-33.516,48.25-52.117,48.516-52.305l-0.016-0.008
			c3.266-2.281,5.109-6.297,4.406-10.492c-0.969-5.797-6.469-9.719-12.281-8.75c-1.609,0.273-3.078,0.906-4.344,1.789v-0.016
			c-1.188,0.828-29.266,20.68-53.625,57.328c-5.047,7.586-9.547,15.352-13.531,23.258
			C241.129,156.711,236.676,145.891,235.16,134.227z"/>
	</g>
</g>
<g>
</g>
<g>
</g>
<g>
</g>
<g>
</g>
<g>
</g>
<g>
</g>
<g>
</g>
<g>
</g>
<g>
</g>
<g>
</g>
<g>
</g>
<g>
</g>
<g>
</g>
<g>
</g>
<g>
</g>
</svg>
